<svg width="100%" viewBox="0 0 680 300" xmlns="http://www.w3.org/2000/svg">

<style>
  .cell { fill: white; stroke: #999; stroke-width: 0.8; }
  .cell-head { fill: #f0f0f0; stroke: #999; stroke-width: 0.8; }
  .ct { font-family: Arial, sans-serif; font-size: 15px; fill: #111; text-anchor: middle; dominant-baseline: central; }
</style>

<!-- Row 1 -->
<rect x="90" y="20" width="83" height="40" class="cell-head"/>
<rect x="173" y="20" width="83" height="40" class="cell-head"/>
<rect x="256" y="20" width="83" height="40" class="cell-head"/>
<rect x="339" y="20" width="83" height="40" class="cell-head"/>
<rect x="422" y="20" width="83" height="40" class="cell-head"/>
<rect x="505" y="20" width="83" height="40" class="cell-head"/>
<text x="131" y="40" class="ct">−2</text>
<text x="214" y="40" class="ct">−1</text>
<text x="297" y="40" class="ct">1</text>
<text x="380" y="40" class="ct">2</text>
<text x="463" y="40" class="ct">3</text>
<text x="546" y="40" class="ct">4</text>

<!-- Row 2 -->
<rect x="90" y="60" width="83" height="40" class="cell"/>
<rect x="173" y="60" width="83" height="40" class="cell"/>
<rect x="256" y="60" width="83" height="40" class="cell"/>
<rect x="339" y="60" width="83" height="40" class="cell"/>
<rect x="422" y="60" width="83" height="40" class="cell"/>
<rect x="505" y="60" width="83" height="40" class="cell"/>
<text x="131" y="80" class="ct">−4</text>
<text x="214" y="80" class="ct">−2</text>
<text x="297" y="80" class="ct">2</text>
<text x="380" y="80" class="ct">4</text>
<text x="463" y="80" class="ct">6</text>
<text x="546" y="80" class="ct">8</text>

<!-- Row 3 -->
<rect x="90" y="100" width="83" height="40" class="cell"/>
<rect x="173" y="100" width="83" height="40" class="cell"/>
<rect x="256" y="100" width="83" height="40" class="cell"/>
<rect x="339" y="100" width="83" height="40" class="cell"/>
<rect x="422" y="100" width="83" height="40" class="cell"/>
<rect x="505" y="100" width="83" height="40" class="cell"/>
<text x="131" y="120" class="ct">−6</text>
<text x="214" y="120" class="ct">−3</text>
<text x="297" y="120" class="ct">3</text>
<text x="380" y="120" class="ct">6</text>
<text x="463" y="120" class="ct">9</text>
<text x="546" y="120" class="ct">12</text>

<!-- Row 4 -->
<rect x="90" y="140" width="83" height="40" class="cell"/>
<rect x="173" y="140" width="83" height="40" class="cell"/>
<rect x="256" y="140" width="83" height="40" class="cell"/>
<rect x="339" y="140" width="83" height="40" class="cell"/>
<rect x="422" y="140" width="83" height="40" class="cell"/>
<rect x="505" y="140" width="83" height="40" class="cell"/>
<text x="131" y="160" class="ct">−8</text>
<text x="214" y="160" class="ct">−4</text>
<text x="297" y="160" class="ct">4</text>
<text x="380" y="160" class="ct">8</text>
<text x="463" y="160" class="ct">12</text>
<text x="546" y="160" class="ct">16</text>

<!-- Row 5 -->
<rect x="90" y="180" width="83" height="40" class="cell"/>
<rect x="173" y="180" width="83" height="40" class="cell"/>
<rect x="256" y="180" width="83" height="40" class="cell"/>
<rect x="339" y="180" width="83" height="40" class="cell"/>
<rect x="422" y="180" width="83" height="40" class="cell"/>
<rect x="505" y="180" width="83" height="40" class="cell"/>
<text x="131" y="200" class="ct">−10</text>
<text x="214" y="200" class="ct">−5</text>
<text x="297" y="200" class="ct">5</text>
<text x="380" y="200" class="ct">10</text>
<text x="463" y="200" class="ct">15</text>
<text x="546" y="200" class="ct">20</text>

<!-- Row 6 -->
<rect x="90" y="220" width="83" height="40" class="cell"/>
<rect x="173" y="220" width="83" height="40" class="cell"/>
<rect x="256" y="220" width="83" height="40" class="cell"/>
<rect x="339" y="220" width="83" height="40" class="cell"/>
<rect x="422" y="220" width="83" height="40" class="cell"/>
<rect x="505" y="220" width="83" height="40" class="cell"/>
<text x="131" y="240" class="ct">−12</text>
<text x="214" y="240" class="ct">−6</text>
<text x="297" y="240" class="ct">6</text>
<text x="380" y="240" class="ct">12</text>
<text x="463" y="240" class="ct">18</text>
<text x="546" y="240" class="ct">24</text>

</svg>